<svg width="600" height="400" viewBox="0 0 600 400" fill="none" xmlns="http://www.w3.org/2000/svg">
    <rect width="600" height="400" rx="12" fill="#E0F2FE"/>
    <rect x="40" y="40" width="520" height="320" rx="8" fill="white"/>
    <rect x="80" y="80" width="200" height="40" rx="4" fill="#DBEAFE"/>
    <rect x="80" y="140" width="120" height="16" rx="4" fill="#EFF6FF"/>
    <rect x="80" y="170" width="440" height="12" rx="4" fill="#F8FAFC"/>
    <rect x="80" y="190" width="400" height="12" rx="4" fill="#F8FAFC"/>
    <rect x="80" y="210" width="420" height="12" rx="4" fill="#F8FAFC"/>
    <rect x="80" y="240" width="160" height="100" rx="8" fill="#DBEAFE"/>
    <rect x="260" y="240" width="160" height="100" rx="8" fill="#DBEAFE"/>
    <rect x="440" y="240" width="80" height="100" rx="8" fill="#DBEAFE"/>
    <rect x="80" y="360" width="440" height="8" rx="4" fill="#EFF6FF"/>
    <rect x="80" y="380" width="200" height="8" rx="4" fill="#EFF6FF"/>
</svg>
